<svg id="Layer_1" enable-background="new 0 0 1540 1540" height="512" viewBox="0 0 1540 1540" width="512" xmlns="http://www.w3.org/2000/svg"><g><g><g><g><g id="XMLID_1_"><path d="m770 258.5c184.2 0 334 149.8 334 334.1 0 184.2-149.8 334-334 334s-334-149.8-334-334c0-184.3 149.8-334.1 334-334.1zm163.4 334c0-9.3-7.6-16.9-16.9-16.9h-129.6v-129.7c0-9.3-7.6-16.9-16.9-16.9s-16.9 7.6-16.9 16.9v129.7h-129.6c-9.3 0-16.9 7.6-16.9 16.9s7.6 16.9 16.9 16.9h129.7v129.6c0 9.3 7.6 16.9 16.9 16.9s16.9-7.6 16.9-16.9v-129.7h129.7c9.1 0 16.7-7.5 16.7-16.8z"/><path d="m770 5c314.9 0 571.2 256.2 571.2 571.2 0 256.7-157.6 505.6-289.8 669.3-121.9 150.8-245.1 258.8-281.3 289.5-36.2-30.6-159.1-138.3-281-289-132.4-163.7-290.4-413-290.4-669.8.1-314.9 256.4-571.2 571.3-571.2zm367.7 587.5c0-49.7-9.7-97.8-28.9-143.2-18.6-43.8-45-83.2-78.9-116.9-33.7-33.7-73.1-60.3-116.9-78.9-45.3-19.2-93.5-28.9-143.2-28.9s-97.8 9.7-143.2 28.9c-43.8 18.6-83.1 45-116.9 78.9-33.7 33.7-60.3 73.1-78.9 116.9-19.2 45.3-28.9 93.5-28.9 143.2s9.7 97.8 28.9 143.2c18.6 43.8 45 83.2 78.9 116.9 33.7 33.7 73.1 60.3 116.9 78.9 45.3 19.2 93.5 28.9 143.2 28.9s97.8-9.7 143.2-28.9c43.8-18.6 83.1-45 116.9-78.9 33.7-33.7 60.3-73.1 78.9-116.9 19.2-45.4 28.9-93.6 28.9-143.2z"/></g></g></g></g></g></svg>